<svg class="icon-user" widh="144px" heiht="32px" xmlns="http://www.w3.org/2000/svg" viewBox="0 0 144 32">
  <style>
    g {
      fill: none;
      stroke-width: 1.5px; 
      stroke: #000
    }
  </style>
  <g>
    <path fill="#fff" d="M2 6 2 2 142 2 142 30 2 30z "></path>
    <!--path fill="#fff" d="M64 12 64 25 80 25 80 12"></path>
    <path fill="#fff" d="M62 12 82 12 82 8 62 8z"></path>
    <path d="M72 26 72 8"></path>
    <path d="M69 5.5 72 8"></path>
    <path d="M75 5.5 72 8"></path>
    <path d="M58 2 58 30 86 30 86 2"></path-->
    <path d="M58 6 62 6 68 23 76 23"></path>
    <path d="M66 19 77 19 81 11 75 11"></path>
    <circle r="1.5" cx="67.5" cy="24.5"></circle>
    <circle r="1.5" cx="76.5" cy="24.5"></circle>
  </g>
  </svg>