<svg xmlns="http://www.w3.org/2000/svg" width="24" height="24" shape-rendering="geometricPrecision" text-rendering="geometricPrecision" image-rendering="optimizeQuality" fill-rule="evenodd" clip-rule="evenodd" viewBox="0 0 640 640"><path d="M579.999 0H60C27 0 0 27 0 60v520c0 33 27 60 60 60h519.999c33 0 60-27 60-60V60c0-33-27-60-60-60zM320 550.507C192.876 550.507 89.493 447.136 89.493 320c0-127.135 103.36-230.507 230.507-230.507 127.124 0 230.507 103.36 230.507 230.507S447.136 550.507 320 550.507zm194.4-198.983c-6.732-2.15-60.981-18.26-122.635-8.386 25.76 70.76 36.19 128.4 38.268 140.388 44.115-29.87 75.639-77.174 84.367-132.002zM396.914 501.538c-2.976-17.303-14.339-77.458-41.953-149.293-.46.177-.898.272-1.276.46-111.084 38.718-151.006 115.715-154.49 122.92 33.402 26.02 75.379 41.61 120.84 41.61 27.296 0 53.316-5.598 76.914-15.673l-.035-.024zm-223.231-49.63c4.5-7.666 58.524-97.065 159.994-129.924 2.54-.79 5.126-1.606 7.76-2.326-4.96-11.174-10.347-22.406-15.945-33.39-98.21 29.433-193.68 28.17-202.314 28.087-.095 1.984-.095 3.98-.095 6.023 0 50.505 19.182 96.698 50.6 131.565v-.035zm-46.37-171.972c8.822.083 89.965.438 182.08-23.964-32.575-57.993-67.796-106.773-73.016-113.883-55.123 26.008-96.356 76.808-109.041 137.848h-.024zm146.6-151.077c5.409 7.276 41.22 56.02 73.465 115.253 70.04-26.197 99.663-66.118 103.182-71.15-34.749-30.874-80.493-49.619-130.55-49.619a204.686 204.686 0 0 0-46.098 5.492v.024zm198.545 66.982c-4.157 5.586-37.217 47.93-109.962 77.623 4.571 9.366 9 18.91 13.052 28.559 1.44 3.425 2.882 6.744 4.24 10.158 65.54-8.162 130.643 4.972 137.128 6.307-.449-46.442-17.114-89.14-44.481-122.635l.024-.012z"/></svg>