<svg xmlns="http://www.w3.org/2000/svg" viewBox="0 0 333334 199007" shape-rendering="geometricPrecision" text-rendering="geometricPrecision" image-rendering="optimizeQuality" fill-rule="evenodd" clip-rule="evenodd"><path d="M31367 0h270601c8631 0 16474 3528 22156 9210 5683 5683 9211 13526 9211 22156v136275c0 8629-3529 16472-9211 22155-5683 5683-13526 9211-22155 9211H31368c-8629 0-16473-3528-22156-9211C3530 184114 2 176272 2 167641V31366c0-8631 3528-16474 9210-22156S22738 0 31369 0zm270601 10811H31367c-5647 0-10785 2315-14513 6043s-6043 8866-6043 14513v136275c0 5646 2315 10784 6043 14512 3729 3729 8868 6044 14513 6044h270601c5645 0 10783-2315 14512-6044 3728-3729 6044-8867 6044-14511V31368c0-5645-2315-10784-6043-14513-3728-3728-8867-6043-14513-6043z" fill="gray" fill-rule="nonzero"/><path d="M272689 81493l-26232 60148h-7949l9804-20933-17223-38951h8479l12454 29942h265l12189-29942h8214v-265zM160870 98451v24642h-7949V62150h20668c5035 0 9804 1855 13514 5300 3709 3180 5564 7949 5564 12983 0 5035-1855 9539-5564 12983-3710 3445-8215 5300-13514 5300l-12719-265zm0-28882v21198h13249c2915 0 5829-1059 7684-3180 4239-3975 4239-10598 265-14573l-265-265c-2120-2120-4770-3444-7684-3180h-13249zm50080 10599c5830 0 10334 1589 13778 4769 3445 3180 5035 7420 5035 12719v25437h-7419v-5829h-265c-3180 4769-7685 7154-12983 7154-4505 0-8479-1325-11659-3975-2915-2650-4769-6359-4769-10334 0-4240 1590-7684 4769-10334 3180-2649 7684-3709 12984-3709 4769 0 8479 795 11393 2650v-1855c0-2650-1060-5300-3180-6889-2120-1855-4770-2915-7684-2915-4505 0-7949 1855-10333 5565l-6890-4239c4240-5564 9804-8214 17224-8214zm-10069 30206c0 2120 1059 3975 2649 5035 1855 1324 3974 2120 6094 2120 3180 0 6359-1325 8744-3710 2650-2385 3974-5300 3974-8479-2384-1855-5829-2915-10334-2915-3180 0-5829 795-7949 2385-2120 1325-3180 3180-3180 5565z" fill="#5f6368"/><path d="M129339 93152c0-2385-265-4770-530-7154H95688v13514h18813c-795 4239-3180 8214-6889 10599v8744h11394c6624-6094 10334-15104 10334-25702z" fill="#4285f4"/><path d="M95687 127333c9539 0 17488-3180 23317-8479l-11394-8744c-3180 2120-7154 3444-11924 3444-9009 0-16958-6094-19608-14573H64420v9009c6094 11924 18018 19343 31267 19343z" fill="#34a853"/><path d="M76079 98981c-1590-4239-1590-9009 0-13513v-9009H64421c-5035 9804-5035 21463 0 31532l11658-9009z" fill="#fbbc04"/><path d="M95687 71159c5034 0 9804 1855 13514 5300l10069-10069c-6359-5830-14839-9274-23318-9009-13248 0-25437 7419-31267 19343l11659 9009c2384-8479 10333-14574 19343-14574z" fill="#ea4335"/></svg>