<?xml version="1.0" encoding="utf-8"?>
<!-- Generator: Adobe Illustrator 18.0.0, SVG Export Plug-In . SVG Version: 6.00 Build 0)  -->
<!DOCTYPE svg PUBLIC "-//W3C//DTD SVG 1.1//EN" "http://www.w3.org/Graphics/SVG/1.1/DTD/svg11.dtd">
<svg version="1.1" id="Layer_1" xmlns="http://www.w3.org/2000/svg" xmlns:xlink="http://www.w3.org/1999/xlink" x="0px" y="0px"
	 viewBox="0 0 61.5 62" enable-background="new 0 0 61.5 62" xml:space="preserve">
<g>
	<path fill="#E0DFDE" d="M54.5,59.7l-2-1.4c-0.5-0.3-1-0.5-1.6-0.5c-0.6,0-1.1,0.2-1.6,0.5l-2,1.4c-0.5,0.3-0.2,1,0.3,1h6.5
		C54.8,60.7,55,60,54.5,59.7L54.5,59.7z M54.5,59.7"/>
	<path fill="#E0DFDE" d="M15.8,59.7l-2-1.4c-0.5-0.3-1-0.5-1.6-0.5c-0.6,0-1.1,0.2-1.6,0.5l-2,1.4c-0.5,0.3-0.2,1,0.3,1h6.5
		C16,60.7,16.2,60,15.8,59.7L15.8,59.7z M15.8,59.7"/>
	<path fill="#F3F3F1" d="M17.8,31.5H6.6c-0.2,0-0.4,0.2-0.4,0.4l-0.8,8.7c-0.4,4,2.8,7.4,6.8,7.4c4,0,7.1-3.4,6.8-7.4l-0.8-8.7
		C18.2,31.6,18,31.5,17.8,31.5L17.8,31.5z M17.8,31.5"/>
	<path fill="#E0DFDE" d="M19,40.6l-0.8-8.7c0-0.2-0.2-0.4-0.4-0.4h-6.1c0.2,0,0.4,0.2,0.4,0.4l0.8,8.7c0.3,2.9-1.3,5.5-3.7,6.7
		c0.9,0.5,1.9,0.7,3,0.7C16.2,48,19.3,44.6,19,40.6L19,40.6z M19,40.6"/>
	<path fill="#F3F3F1" d="M56.6,31.5H45.4c-0.2,0-0.4,0.2-0.4,0.4l-0.8,8.7C43.8,44.6,47,48,51,48c4,0,7.1-3.4,6.8-7.4L57,31.8
		C57,31.6,56.8,31.5,56.6,31.5L56.6,31.5z M56.6,31.5"/>
	<path fill="#E0DFDE" d="M57.7,40.6L57,31.8c0-0.2-0.2-0.4-0.4-0.4h-5.9c0.2,0,0.4,0.2,0.4,0.4l0.8,8.7c0.3,2.9-1.4,5.5-3.8,6.7
		c0.9,0.4,1.9,0.7,3,0.7C55,48,58.1,44.6,57.7,40.6L57.7,40.6z M57.7,40.6"/>
	<path fill="#DFBAC5" d="M5.4,40.6c-0.4,4,2.8,7.4,6.8,7.4c4,0,7.1-3.4,6.8-7.4l-0.1-0.8H5.5L5.4,40.6z M5.4,40.6"/>
	<path fill="#DCB2BE" d="M19,40.6l-0.1-0.8h-6.1l0.1,0.8c0.3,2.9-1.3,5.5-3.7,6.7c0.1,0.1,0.2,0.1,0.3,0.2c0,0,0,0,0,0
		c0.1,0,0.2,0.1,0.3,0.1c0,0,0,0,0.1,0c0.1,0,0.2,0.1,0.3,0.1c0,0,0.1,0,0.1,0c0.1,0,0.2,0.1,0.3,0.1c0,0,0.1,0,0.1,0
		c0.1,0,0.2,0,0.3,0.1c0,0,0.1,0,0.1,0c0.1,0,0.2,0,0.3,0c0,0,0.1,0,0.1,0c0.1,0,0.2,0,0.3,0c0,0,0.1,0,0.1,0c0.1,0,0.3,0,0.4,0
		C16.2,48,19.3,44.6,19,40.6L19,40.6z M19,40.6"/>
	<path fill="#DFBAC5" d="M44.2,40.6C43.8,44.6,47,48,51,48c4,0,7.1-3.4,6.8-7.4l-0.1-0.8H44.3L44.2,40.6z M44.2,40.6"/>
	<path fill="#DCB2BE" d="M57.7,40.6l-0.1-0.8h-5.9l0.1,0.8c0.3,2.9-1.4,5.5-3.8,6.7c0.1,0.1,0.2,0.1,0.3,0.2l0,0
		c0.1,0,0.2,0.1,0.3,0.1c0,0,0,0,0,0c0.1,0,0.2,0.1,0.3,0.1c0,0,0,0,0,0c0.1,0,0.2,0.1,0.3,0.1c0,0,0,0,0.1,0c0.1,0,0.2,0,0.3,0.1
		c0,0,0.1,0,0.1,0c0.1,0,0.2,0,0.3,0c0,0,0.1,0,0.1,0c0.1,0,0.2,0,0.3,0c0,0,0.1,0,0.1,0c0.1,0,0.3,0,0.4,0
		C55,48,58.1,44.6,57.7,40.6L57.7,40.6z M57.7,40.6"/>
	<path fill="#D49FAD" d="M34.3,17.9V4.9h-5.3v13.1c0,2.6-0.9,5.1-2.6,7.1c-1.7,2-2.6,4.5-2.6,7.1v26.1c0,1.3,1.1,2.4,2.4,2.4H37
		c1.3,0,2.4-1.1,2.4-2.4V32.1c0-2.6-0.9-5.1-2.6-7.1C35.2,23,34.3,20.5,34.3,17.9L34.3,17.9z M34.3,17.9"/>
	<path fill="#D19BAA" d="M36.8,25c-1.7-2-2.6-4.5-2.6-7.1V4.9h-2.7v13.1c0.2,5.2,1.7,5.8,1.7,8.4v31.9c0,1.3-1.1,2.4-2.4,2.4H37
		c1.3,0,2.4-1.1,2.4-2.4V32.1C39.4,29.6,38.5,27,36.8,25L36.8,25z M36.8,25"/>
	<path fill="#E8CDD4" d="M34.8,12.2h-6.3V4.6c0-0.6,0.5-1.1,1.1-1.1h4.1c0.6,0,1.1,0.5,1.1,1.1V12.2z M34.8,12.2"/>
	<path fill="#E4C5CD" d="M39.4,47.9h-9c-0.6,0-1.1-0.5-1.1-1.1v-9c0-0.6,0.5-1.1,1.1-1.1h9V47.9z M39.4,47.9"/>
	<rect x="33.3" y="36.7" fill="#DFBAC4" width="6.1" height="11.2"/>
	<path fill="#E5C7CE" d="M33.6,3.5h-2v8.8h3.2V4.6C34.8,4,34.2,3.5,33.6,3.5L33.6,3.5z M33.6,3.5"/>
	<path fill="#E0BEC7" d="M35.2,12.8h-7.3c-0.4,0-0.8-0.4-0.8-0.8v-1.2c0-0.4,0.4-0.8,0.8-0.8h7.3c0.4,0,0.8,0.4,0.8,0.8V12
		C36,12.4,35.7,12.8,35.2,12.8L35.2,12.8z M35.2,12.8"/>
	<g>
		<defs>
			<rect id="SVGID_1_" x="4.5" y="2.5" width="54.2" height="59.2"/>
		</defs>
		<clipPath id="SVGID_2_">
			<use xlink:href="#SVGID_1_"  overflow="visible"/>
		</clipPath>
		<path clip-path="url(#SVGID_2_)" fill="#DEB8C2" d="M36,12v-1.2c0-0.4-0.4-0.8-0.8-0.8h-3.7v2.8h3.7C35.7,12.8,36,12.4,36,12
			L36,12z M36,12"/>
		<path clip-path="url(#SVGID_2_)" d="M19.1,31.8c-0.1-0.7-0.6-1.1-1.3-1.1H6.6c-0.7,0-1.2,0.5-1.3,1.1l-0.8,8.7
			c-0.2,2.1,0.5,4.3,2,5.9c1.3,1.4,3,2.2,4.8,2.4V57c-0.4,0.1-0.8,0.3-1.2,0.6l-2,1.4c-0.5,0.4-0.7,1-0.5,1.6c0.2,0.6,0.7,1,1.4,1
			h6.5c0.6,0,1.2-0.4,1.4-1c0.2-0.6,0-1.2-0.5-1.6l-2-1.4c-0.4-0.3-0.8-0.4-1.2-0.6v-8.2c1.8-0.2,3.5-1.1,4.8-2.4
			c1.4-1.6,2.2-3.7,2-5.9L19.1,31.8z M7,32.3h10.4l0.6,6.5H6.4L7,32.3z M13.3,59l1.3,0.9H9.9l1.3-0.9c0.3-0.2,0.7-0.3,1.1-0.3
			C12.6,58.7,13,58.8,13.3,59L13.3,59z M16.6,45.2c-1.1,1.2-2.7,1.9-4.4,1.9c-1.7,0-3.2-0.7-4.4-1.9c-1.1-1.2-1.7-2.9-1.5-4.5l0-0.1
			h11.8l0,0.1C18.3,42.3,17.7,43.9,16.6,45.2L16.6,45.2z M16.6,45.2"/>
		<path clip-path="url(#SVGID_2_)" d="M58.6,40.5l-0.8-8.7c-0.1-0.7-0.6-1.1-1.3-1.1H45.4c-0.7,0-1.2,0.5-1.3,1.1l-0.8,8.7
			c-0.2,2.1,0.5,4.3,2,5.9c1.3,1.4,3,2.2,4.8,2.4V57c-0.4,0.1-0.8,0.3-1.2,0.6l-2,1.4c-0.5,0.4-0.7,1-0.5,1.6c0.2,0.6,0.7,1,1.4,1
			h6.5c0.6,0,1.2-0.4,1.4-1c0.2-0.6,0-1.2-0.5-1.6l-2-1.4c-0.4-0.3-0.8-0.4-1.2-0.6v-8.2c1.8-0.2,3.5-1.1,4.8-2.4
			C58.1,44.8,58.8,42.6,58.6,40.5L58.6,40.5z M45.8,32.3h10.4l0.6,6.5H45.2L45.8,32.3z M52,59l1.3,0.9h-4.6l1.3-0.9
			c0.3-0.2,0.7-0.3,1.1-0.3C51.4,58.7,51.7,58.8,52,59L52,59z M55.4,45.2c-1.1,1.2-2.7,1.9-4.4,1.9c-1.7,0-3.2-0.7-4.4-1.9
			c-1.1-1.2-1.7-2.9-1.5-4.5l0-0.1h11.8l0,0.1C57,42.3,56.5,43.9,55.4,45.2L55.4,45.2z M55.4,45.2"/>
	</g>
	<path d="M35.1,17.9v-4.3h0.1c0.9,0,1.7-0.7,1.7-1.7v-1.2c0-0.8-0.5-1.4-1.3-1.6V4.6c0-1.1-0.9-2-2-2h-4.1c-1.1,0-2,0.9-2,2v4.5
		c-0.7,0.2-1.3,0.8-1.3,1.6V12c0,0.9,0.7,1.7,1.7,1.7h0.1v4.3c0,2.4-0.8,4.7-2.4,6.6c-1.8,2.1-2.8,4.9-2.8,7.7
		c0,0.5,0.4,0.9,0.9,0.9c0.5,0,0.9-0.4,0.9-0.9c0-2.4,0.8-4.7,2.4-6.6c1.8-2.1,2.8-4.9,2.8-7.7v-4.3h3.6v4.3c0,2.8,1,5.5,2.8,7.7
		c1.5,1.8,2.4,4.2,2.4,6.6v3.7h-8.1c-1.1,0-1.9,0.9-1.9,1.9v9c0,1.1,0.9,1.9,1.9,1.9h8.1v3.5c0,0.5,0.4,0.9,0.9,0.9
		c0.5,0,0.9-0.4,0.9-0.9v-20c0-2.8-1-5.5-2.8-7.7C36,22.6,35.1,20.3,35.1,17.9L35.1,17.9z M29.3,4.6c0-0.2,0.1-0.3,0.3-0.3h4.1
		c0.2,0,0.3,0.1,0.3,0.3v4.5h-4.6V4.6z M28,11.9v-1.1h7.2v1.1H28z M38.5,47h-8.1c-0.1,0-0.2-0.1-0.2-0.2v-9c0-0.1,0.1-0.2,0.2-0.2
		h8.1V47z M38.5,47"/>
	<path d="M39.4,55.3c-0.5,0-0.9,0.4-0.9,0.9v2.1c0,0.8-0.7,1.5-1.5,1.5H26.2c-0.8,0-1.5-0.7-1.5-1.5V36.2c0-0.5-0.4-0.9-0.9-0.9
		c-0.5,0-0.9,0.4-0.9,0.9v22.1c0,1.8,1.5,3.3,3.3,3.3H37c1.8,0,3.3-1.5,3.3-3.3v-2.1C40.2,55.7,39.9,55.3,39.4,55.3L39.4,55.3z
		 M39.4,55.3"/>
</g>
</svg>
