<svg class="icon-user" xmlns="http://www.w3.org/2000/svg" viewBox="0 0 700 350">
  <style>
    .icon-user__shape, path {
      fill: #1185fe
    }

    .icon-user__fill, path {
      fill: none;
      stroke-width: 2px; 
      stroke: #1185fe
    }

    .icon-user__circle {
      stroke: none
    }

    circle, path {
      fill: none;
      stroke-width: 1.5px; 
      stroke: #4f4f4f
    }
  </style>
  <!--g transform="translate(-4207 -165)">
  <path class="icon-user__shape" d="M4198.193,99A12.007,12.007,0,0,1,4195,96.944V96.2a3,3,0,0,1,1.64-2.671,13.987,13.987,0,0,1,12.72,0A3,3,0,0,1,4211,96.2v.746A12.012,12.012,0,0,1,4207.808,99ZM4199,85a4,4,0,1,1,4,4A4,4,0,0,1,4199,85Z" transform="translate(16 89)"></path>
  <g class="icon-user__fill" transform="translate(4207 165)">
    <circle class="icon-user__circle" cx="12" cy="12" r="12"></circle>
    <circle class="icon-user__circle-fill" cx="12" cy="12" r="11"></circle>
  </g>
  </g-->
  <g>
    <circle cx="350" cy="175" r="87.5"></circle>
    <circle cx="350" cy="153.125" r="21.875"></circle>
    <path d="M277.5,222.5 A350,1450 0 0,1 422.5,222.5"></path>
  </g>
  </svg>