<svg class="icon-user" xmlns="http://www.w3.org/2000/svg" viewBox="0 0 24 24">
  <style>
    g {
      fill: none;
      stroke-width: 1.2; 
      stroke: #000
    }
  </style>
  <g>
    <!--path fill="#000" d="M22 22 10 22 10 12 22 12z"></path>
    <path stroke="#fff" d="M13,14 A2,2 1 1,0 19,14"></path>
    <path d="M9 22 2 22 2 6 15 6 15 11"></path>
    <path d="M6 8 6 4 A2 2 0 1 1 11 4 L11 8"></path-->
    <path fill="#000" stroke="none" d="M21.5 22 9.5 22 9.5 11 21.5 11z"></path>
    <path stroke="#fff" d="M13 14 A2.6 2.6 1 1 0 18 14"></path>
    <path d="M7 21.5 1.5 21.5 1.5 5.5 14.5 5.5 14.5 9.5"></path>
    <path d="M5.5 8 5.5 4 A2 2 0 1 1 10.5 4 L10.5 8"></path>
  </g>
  </svg>