<svg xmlns="http://www.w3.org/2000/svg" height="800" width="1200" viewBox="-4.79889 -4.75 41.59038 28.5">
	<path fill-rule="evenodd" d="M31.2584 1.2866C31.4808.5449 31.2584 0 30.2 0h-3.5c-.89 0-1.3002.4708-1.5227.9898 0 0-1.7799 4.3384-4.3013 7.1565-.8157.8157-1.1866 1.0753-1.6315 1.0753-.2225 0-.5562-.2596-.5562-1.0011v-6.934C18.6883.3967 18.4417 0 17.7 0h-5.5c-.5561 0-.8906.413-.8906.8045 0 .8436 1.2607 1.0382 1.3906 3.4113V9.37c0 1.13-.204 1.3349-.649 1.3349-1.1865 0-4.0728-4.3578-5.7845-9.3442C5.931.3915 5.5945 0 4.7 0H1.2C.2 0 0 .4708 0z"></path></svg>