<svg xmlns="http://www.w3.org/2000/svg" height="800" width="1200" viewBox="-83.77245 -140.29175 726.0279 841.7505"><path d="M407.185 336.283c-6.948-3.478-41.108-20.284-47.477-22.606-6.368-2.318-11-3.476-15.632 3.478-4.632 6.954-17.948 22.606-22.001 27.244-4.052 4.636-8.106 5.218-15.054 1.738-6.948-3.477-29.336-10.813-55.874-34.486-20.655-18.424-34.6-41.176-38.652-48.132-4.054-6.956-.434-10.716 3.045-14.18 3.127-3.114 6.95-8.116 10.423-12.174 3.474-4.056 4.632-6.956 6.948-11.59 2.316-4.639 1.158-8.695-.58-12.172-1.736-3.478-15.632-37.679-21.422-51.592-5.64-13.547-11.368-11.712-15.633-11.927-4.048-.201-8.685-.244-13.316-.244-4.632 0-12.16 1.739-18.53 8.693-6.367 6.956-24.317 23.767-24.317 57.964 0 34.202 24.896 67.239 28.371 71.876 3.475 4.639 48.993 74.818 118.695 104.914 16.576 7.16 29.518 11.434 39.609 14.636 16.644 5.289 31.79 4.542 43.763 2.753 13.349-1.993 41.108-16.807 "></path></svg>